<?xml version="1.0" encoding="UTF-8" standalone="no"?>
<svg
   xmlns:dc="http://purl.org/dc/elements/1.1/"
   xmlns:cc="http://creativecommons.org/ns#"
   xmlns:rdf="http://www.w3.org/1999/02/22-rdf-syntax-ns#"
   xmlns:svg="http://www.w3.org/2000/svg"
   xmlns="http://www.w3.org/2000/svg"
   xmlns:sodipodi="http://sodipodi.sourceforge.net/DTD/sodipodi-0.dtd"
   xmlns:inkscape="http://www.inkscape.org/namespaces/inkscape"
   width="57"
   height="80"
   version="1.2"
   viewBox="0 0 42.75 60"
   id="svg50"
   sodipodi:docname="party.svg"
   inkscape:version="0.92.3 (2405546, 2018-03-11)">
  <sodipodi:namedview
     pagecolor="#ffffff"
     bordercolor="#666666"
     borderopacity="1"
     objecttolerance="10"
     gridtolerance="10"
     guidetolerance="10"
     inkscape:pageopacity="0"
     inkscape:pageshadow="2"
     inkscape:window-width="1892"
     inkscape:window-height="1054"
     id="namedview52"
     showgrid="false"
     inkscape:zoom="2.95"
     inkscape:cx="28.5"
     inkscape:cy="40"
     inkscape:window-x="0"
     inkscape:window-y="0"
     inkscape:window-maximized="1"
     inkscape:current-layer="svg50" />
  <metadata
     id="metadata2">
    <rdf:RDF>
      <cc:Work
         rdf:about="">
        <dc:format>image/svg+xml</dc:format>
        <dc:type
           rdf:resource="http://purl.org/dc/dcmitype/StillImage" />
        <dc:title />
      </cc:Work>
    </rdf:RDF>
  </metadata>
  <defs
     id="defs42">
    <clipPath
       id="clipPath6">
      <path
         d="m0 163h123v108.93h-123z"
         id="path4" />
    </clipPath>
    <clipPath
       id="clip3">
      <rect
         width="363"
         height="272"
         id="rect8" />
    </clipPath>
    <g
       clip-path="url(#clip3)"
       id="g11" />
    <clipPath
       id="clipPath15">
      <path
         d="m64.824 2.3711h5.4922v6h-5.4922z"
         id="path13" />
    </clipPath>
    <clipPath
       id="clipPath19">
      <path
         d="m62.676 0.70312h1.668v7.5352h-1.668z"
         id="path17" />
    </clipPath>
    <clipPath
       id="clipPath23">
      <path
         d="m64.344 11.57h5.9727v7.4297h-5.9727z"
         id="path21" />
    </clipPath>
    <clipPath
       id="clipPath27">
      <path
         d="m21.344 0.70312h6.6562v7.5352h-6.6562z"
         id="path25" />
    </clipPath>
    <clipPath
       id="clipPath31">
      <path
         d="m0.16016 0.70312h19.84v23.047h-19.84z"
         id="path29" />
    </clipPath>
    <clipPath
       id="clipPath35">
      <path
         d="m0.16016 1h19.84v8h-19.84z"
         id="path33" />
    </clipPath>
    <clipPath
       id="clip5">
      <rect
         width="71"
         height="24"
         id="rect37" />
    </clipPath>
    <g
       clip-path="url(#clip5)"
       id="g40" />
  </defs>
  <g
     fill="none"
     stroke="#00578f"
     stroke-linecap="round"
     stroke-linejoin="bevel"
     stroke-opacity=".65366"
     stroke-width="3"
     id="g48"
     style="stroke:#8f0050;stroke-opacity:0.65490198">
    <ellipse
       cx="21.375"
       cy="17.251"
       rx="11.098"
       ry="11.098"
       id="ellipse44"
       style="stroke:#8f0050;stroke-opacity:0.65490198" />
    <path
       d="m13.965 33.46a19.746 19.746 0 0 0-12.337 18.292 19.746 19.746 0 0 0 0.13623 2.1064 44.249 44.249 0 0 0 19.61 4.6421 44.249 44.249 0 0 0 19.623-4.6128 19.746 19.746 0 0 0 0.1245-2.1357 19.746 19.746 0 0 0-12.309-18.28 20.611 20.611 0 0 1-7.4384 1.3901 20.611 20.611 0 0 1-7.4092-1.4019z"
       id="path46"
       style="stroke:#8f0050;stroke-opacity:0.65490198" />
  </g>
</svg>
